<?xml version="1.0" encoding="UTF-8" standalone="no"?>
<!-- Created with Inkscape (http://www.inkscape.org/) -->

<svg
   width="32"
   height="32"
   viewBox="0 0 32 32"
   version="1.1"
   id="svg1"
   inkscape:version="1.4 (86a8ad7, 2024-10-11)"
   sodipodi:docname="tree.svg"
   xml:space="preserve"
   xmlns:inkscape="http://www.inkscape.org/namespaces/inkscape"
   xmlns:sodipodi="http://sodipodi.sourceforge.net/DTD/sodipodi-0.dtd"
   xmlns="http://www.w3.org/2000/svg"
   xmlns:svg="http://www.w3.org/2000/svg"><sodipodi:namedview
     id="namedview1"
     pagecolor="#ffffff"
     bordercolor="#000000"
     borderopacity="0.25"
     inkscape:showpageshadow="2"
     inkscape:pageopacity="0.0"
     inkscape:pagecheckerboard="0"
     inkscape:deskcolor="#d1d1d1"
     inkscape:document-units="mm"
     inkscape:zoom="17.318182"
     inkscape:cx="47.089239"
     inkscape:cy="21.451444"
     inkscape:window-width="2558"
     inkscape:window-height="1401"
     inkscape:window-x="2553"
     inkscape:window-y="0"
     inkscape:window-maximized="0"
     inkscape:current-layer="layer1" /><defs
     id="defs1" /><g
     inkscape:label="Layer 1"
     inkscape:groupmode="layer"
     id="layer1"><rect
       style="display:inline;fill:#666666;fill-opacity:1;stroke:#666666;stroke-width:0;stroke-linecap:round;stroke-dasharray:none;stroke-opacity:1"
       id="rect120"
       width="32"
       height="32"
       x="-4.2455911e-10"
       y="7.0442197e-10" /><g
       fill-rule="evenodd"
       id="g60"
       transform="matrix(0.03172558,0,0,0.03213837,0.01485525,0.06957715)"><path
         d="m 582,204 v -1 l 1,1 q 1,0 1,2 0,2 1,3 1,1 1,1 1,0 2,0 v 2 q 0,1 -2,6 -2,5 -9,15 l -6,10 q 0,-1 -1,-1 h -1 v -2 h -3 v -1 l -1,-1 v -2 l 1,-1 v -1 l 7,-12 q 7,-12 7,-15 z"
         fill="#191919"
         stroke="#191919"
         id="path2"
         style="fill:#eaeaea;fill-opacity:1;stroke-width:0;stroke-dasharray:none" /><path
         d="m 730,219 q 34,-1 37,1 3,2 7,8 4,5 4,36 0,31 -1,36 -1,4 -6,8 -4,4 -39,5 -35,1 -38,-1 -4,-2 -7,-7 -3,-4 -3,-11 -2,-7 -2,-27 0,-20 2,-29 2,-9 6,-14 5,-4 40,-5 z m -27,45 v -25 h 27 l 28,1 q 0,0 0,26 0,27 -27,28 h -28 v -3 q -1,-3 0,-27 z"
         fill="#bce097"
         stroke="#bce097"
         id="path3"
         style="fill:#eaeaea;fill-opacity:1;stroke-width:0;stroke-dasharray:none" /><path
         d="m 587,487 h 3 v 2 q 1,3 1,3 h -1 v 1 q -1,1 -1,1 h -1 q 0,0 -2,1 -1,1 -36,2 l -34,1 q 0,-1 -1,-4 v -2 q 1,0 1,0 v -1 h 1 l 1,-1 h 5 q 5,-2 33,-2 28,0 31,-1 z"
         fill="#0f0f0f"
         stroke="#0f0f0f"
         id="path4"
         style="fill:#eaeaea;fill-opacity:1;stroke-width:0;stroke-dasharray:none" /><path
         d="m 371,584 1,1 h -1 q -1,0 -1,7 v 7 h 1 q 1,1 1,1 h -2 v 14 q 0,15 -3,18 -2,2 -37,3 -35,1 -38,-2 -2,-2 -3,-37 -1,-34 2,-37 2,-3 37,-3 36,0 38,3 2,2 3,13 1,12 2,12 z"
         fill="#1096c7"
         stroke="#1096c7"
         id="path5"
         style="fill:#eaeaea;fill-opacity:1;stroke-width:0;stroke-dasharray:none" /><path
         d="m 247,484 v -1 h 1 v 2 h 11 l 4,3 q 3,2 5,5 2,3 2,11 v 7 h 1 v 1 h -1 v 11 l 1,1 h -1 v 29 q 0,29 -4,33 -3,4 -50,5 -47,1 -50,-1 -3,-2 -4,-4 0,-1 0,-47 0,-46 3,-49 3,-4 43,-4 l 39,-1 z"
         fill="#bae096"
         stroke="#bae096"
         id="path6"
         style="fill:#eaeaea;fill-opacity:1;stroke-width:0;stroke-dasharray:none" /><path
         d="m 661,511 q 34,-1 38,1 3,2 7,8 4,5 4,36 0,31 0,34 -2,4 -5,8 -3,5 -9,7 -5,1 -32,1 -26,0 -30,0 -5,0 -9,-3 -3,-2 -7,-8 -2,-6 -2,-37 0,-31 1,-34 1,-4 6,-8 4,-4 38,-5 z m 2,13 q 33,0 34,2 1,1 1,32 0,30 -1,32 -2,2 -33,3 -32,1 -33,-1 -1,0 -3,-5 -2,-5 -1,-31 1,-27 2,-30 1,-2 34,-2 z"
         fill="#bde19a"
         stroke="#bde19a"
         id="path8"
         style="fill:#eaeaea;fill-opacity:1;stroke-width:0;stroke-dasharray:none" /><path
         d="m 919,326 2,-4 h 7 q 7,0 7,1 l -1,27 q 0,28 -4,31 -3,3 -4,4 l -2,1 h -8 v -28 q 0,-29 3,-32 z"
         fill="#1196c6"
         stroke="#1196c6"
         id="path9"
         style="fill:#eaeaea;fill-opacity:1;stroke-width:0;stroke-dasharray:none" /><path
         d="m 515,491 h 1 v 3 q 0,3 0,4 -1,0 -8,4 l -7,2 -1,1 v -1 h -1 v -1 l 5,-4 q 5,-5 8,-6 2,-1 3,-2 z"
         fill="#2b2b2b"
         stroke="#2b2b2b"
         id="path10"
         style="fill:#eaeaea;fill-opacity:1;stroke-width:0;stroke-dasharray:none" /><path
         d="m 398,515 q 2,-1 36,0 33,1 35,3 1,2 1,34 0,32 -3,34 -2,2 -35,1 -33,-1 -35,-3 -1,-2 -1,-34 0,-32 1,-33 0,-1 1,-2 z"
         fill="#bae096"
         stroke="#bae096"
         id="path13"
         style="fill:#eaeaea;fill-opacity:1;stroke-width:0;stroke-dasharray:none" /><path
         d="m 60.999995,336.5 32,-1 h 7 L 119,336.5 c 12.66667,0.66667 20.66667,2.33333 24,5 4,2.66667 7.33333,5.66667 10,9 2.66667,4 4.33333,7.66667 5,11 0.66667,4 1.33333,9.33333 2,16 0.66667,6 1,9.33333 1,10 v 3 h -1 v 1 h 1 v 3 h 10 v 1 h -11 v 31 c -0.66667,20.66667 -1,32 -1,34 0,2 -1.33333,5.66667 -4,11 -2.66667,5.33333 -6.33333,9.33333 -11,12 -4,2.66667 -23,4.33333 -57.000005,5 -34.666667,0.66667 -53.666667,0.33333 -57,-1 -3.333333,-1.33333 -6.333333,-3 -9,-5 -2.666667,-2 -5,-5 -7,-9 -2,-3.33333 -3,-23.66667 -3,-61 0,-37.33333 1.333333,-58 4,-62 2.666667,-4 5.666667,-7 9,-9 3.333333,-2.66667 15.666667,-4.33333 37,-5 z m 4,27 h 29 l 3,-1 c 2.666667,0 3.999995,0.33333 3.999995,1 0,1.33333 0.33333,2 1,2 v -3 L 117,363.5 c 10,0 15.33333,1 16,3 1.33333,1.33333 2,5 2,11 v 17 h -5 c 0,0.66667 1,1 3,1 1.33333,0 2,10 2,30 0,20.66667 -0.66667,32 -2,34 -1.33333,1.33333 -17.33333,2.33333 -48.000005,3 -31.333333,0.66667 -47.666667,0 -49,-2 -2,-2 -3,-17.33333 -3,-46 0,-28.66667 0.333333,-44.33333 1,-47 0.666667,-2.66667 11,-4 31,-4 z"
         fill="#bbe097"
         stroke="#bbe097"
         id="path14"
         style="fill:#eaeaea;fill-opacity:1;stroke-width:0;stroke-dasharray:none"
         sodipodi:nodetypes="sccsccccscccccccccssccsscsscssccsccccsccsscccsss" /><path
         d="m 577,132 h 1 v -1 h 1 v 1 h 2 v 1 h 1 v -2 l 4,10 q 4,10 5,12 1,2 1,3 v 2 h -2 q -1,0 -2,-2 -1,0 -2,1 l -1,1 q -1,0 -5,-13 l -4,-13 z"
         fill="#212121"
         stroke="#212121"
         id="path15"
         style="fill:#eaeaea;fill-opacity:1;stroke-width:0;stroke-dasharray:none" /><path
         d="m 200,395 h -40 v -3 h -1 v -1 h 1 v -3 h 35 q 35,0 37,-2 3,0 8,-5 4,-5 7,-11 3,-6 3,-54 0,-47 -1,-55 -2,-8 -15,-8 -14,-1 -15,-2 -1,-1 -2,-7 l -1,-7 -50,1 q -49,0 -53,3 -5,3 -8,9 -3,5 -5,9 0,4 -1,41 v 36 h -7 v -36 q 0,-35 2,-42 2,-7 7,-13 4,-7 9,-10 5,-3 56,-4 l 50,-1 1,-12 q 1,-11 2,-12 1,0 23,0 21,0 22,1 0,1 0,23 0,21 -5,23 -5,1 -4,5 1,4 1,56 0,53 -4,61 -4,8 -9,12 -5,5 -9,6 -4,1 -34,2 z"
         fill="#2ba1ce"
         stroke="#2ba1ce"
         id="path16"
         style="fill:#eaeaea;fill-opacity:1;stroke-width:0;stroke-dasharray:none" /><path
         d="m 442,202 1,14 q 1,14 3,17 3,3 4,3 1,0 18,1 h 17 v 1 h -4 v 32 q -1,31 -1,32 0,1 -3,4 -3,2 -28,4 -25,0 -26,6 l -1,6 v -6 q 0,-5 -22,-6 -22,-2 -26,-6 l -3,-4 1,-44 q 0,-45 3,-48 3,-2 5,-4 2,0 32,-1 29,-1 30,-1 z"
         fill="#b9e096"
         stroke="#b9e096"
         id="path17"
         style="fill:#eaeaea;fill-opacity:1;stroke-width:0;stroke-dasharray:none" /><path
         d="m 517,619 v 1 l -1,1 v 1 h 1 v 1 h -1 v 1 h 4 q 0,0 0,1 -1,1 -10,5 l -10,5 v -2 h -2 v -2 h 1 v -1 l 8,-5 q 9,-5 9,-5 0,-1 1,-1 z"
         fill="#292929"
         stroke="#292929"
         id="path18"
         style="fill:#eaeaea;fill-opacity:1;stroke-width:0;stroke-dasharray:none" /><path
         d="m 444,384 h 1 q 1,0 1,2 0,3 1,3 1,0 1,-1 1,0 2,0 1,0 2,-1 l -2,13 q -2,14 -1,27 1,13 5,24 4,11 13,23 9,13 13,19 5,6 6,6 1,0 1,1 0,1 4,4 4,2 5,1 2,-1 2,-2 h 1 v 1 h 1 v 3 h -1 v 1 h -1 v 3 h 1 v 1 h 1 l 19,19 q 19,19 20,20 0,1 1,1 1,0 15,20 15,19 21,32 6,13 10,24 2,12 2,27 0,15 -4,29 -4,15 -12,32 -8,17 -23,37 -15,21 -28,38 -13,17 -21,35 -10,18 -14,32 -4,15 -6,29 -2,14 -2,32 0,18 4,35 4,18 4,20 v 2 l 1,1 v 1 h -91 v -2 q 0,-1 0,-18 0,-16 0,-26 2,-10 6,-28 4,-18 10,-35 6,-17 19,-39 13,-23 30,-46 17,-24 29,-41 12,-18 22,-38 10,-20 14,-35 4,-16 5,-34 v -18 h -2 l -1,1 -1,1 h -1 l -1,1 q -1,1 -3,2 l -2,1 h -4 v -1 h 1 v -1 h -1 v -1 l 1,-1 v -2 h 1 v -1 q 0,-1 4,-7 4,-7 2,-16 -2,-8 -13,-27 -11,-19 -31,-45 -20,-26 -26,-38 -6,-12 -11,-26 -5,-15 -5,-34 0,-19 3,-28 l 3,-10 z"
         fill="#030303"
         stroke="#030303"
         id="path19"
         style="fill:#eaeaea;fill-opacity:1;stroke-width:0;stroke-dasharray:none" /><path
         d="m 453,364 7,-14 v 3 h 1 v 1 h 1 v -1 q 0,-1 1,-1 1,1 2,2 l 1,2 -7,14 q -7,15 -7,16 v 1 q -1,1 -2,1 -1,0 -2,0 0,1 -1,1 -1,0 -1,-1 v -2 h -2 v -3 l 1,-1 q 1,-2 1,-4 0,-1 7,-14 z"
         fill="#191919"
         stroke="#191919"
         id="path20"
         style="fill:#eaeaea;fill-opacity:1;stroke-width:0;stroke-dasharray:none" /><path
         d="m 93,364 3,-1 q 4,0 4,1 0,2 1,2 l 3,6 q 4,7 8,10 4,4 6,4 2,2 9,2 h 7 v 7 h -10 q -6,-1 -11,-3 -5,-3 -9,-8 -4,-4 -8,-12 z"
         fill="#45abd2"
         stroke="#45abd2"
         id="path21"
         style="fill:#eaeaea;fill-opacity:1;stroke-width:0;stroke-dasharray:none" /><path
         d="m 935,308 q 1,0 1,0 0,0 26,2 26,2 30,6 4,4 5,42 1,37 -4,42 -5,4 -39,5 -35,1 -40,-2 -4,-3 -7,-9 -3,-7 -4,-8 h -1 1 v -1 h 1 v -31 q 2,-31 5,-36 3,-4 6,-6 3,-2 11,-2 z m -16,18 2,-4 h 7 q 7,0 7,1 1,0 1,0 v -1 l 24,1 q 24,1 26,4 2,3 1,33 -1,29 -3,31 -2,3 -32,3 h -30 l -1,-1 -1,-1 h -1 v -1 h -1 v -5 h -2 v -28 q 0,-29 3,-32 z"
         fill="#b9df98"
         stroke="#b9df98"
         id="path22"
         style="fill:#eaeaea;fill-opacity:1;stroke-width:0;stroke-dasharray:none" /><path
         d="m 402,16 q 49,0 51,3 3,3 3,47 0,45 -3,49 -3,3 -50,4 -47,1 -49,0 -2,-1 -4,-3 -2,-3 -2,-48 0,-45 2,-49 3,-3 52,-3 z"
         fill="#0e96c7"
         stroke="#0e96c7"
         id="path23"
         style="fill:#eaeaea;fill-opacity:1;stroke-width:0;stroke-dasharray:none" /><path
         d="m 555,102 h 1 l 4,2 q 4,3 7,6 3,2 9,10 5,8 5,9 h 1 v 4 h -1 v -1 h -2 v -1 h -1 v 1 h -2 l -1,-1 -1,-1 v -1 q 0,-1 -2,-3 0,-1 -7,-9 l -7,-7 v -1 h -1 q 0,-1 -1,-2 l -2,-2 v -1 q 0,-2 1,-2 z"
         fill="#202020"
         stroke="#202020"
         id="path24"
         style="fill:#eaeaea;fill-opacity:1;stroke-width:0;stroke-dasharray:none" /><path
         d="m 606,478 h 1 v 1 q -1,1 -2,4 -2,3 -3,3 -2,1 -7,4 l -6,4 q 0,0 1,-1 v -1 h 1 q 0,0 -1,-3 v -2 l 6,-3 q 6,-4 7,-4 0,0 1,-1 1,-1 2,-1 z"
         fill="#2a2a2a"
         stroke="#2a2a2a"
         id="path25"
         style="fill:#eaeaea;fill-opacity:1;stroke-width:0;stroke-dasharray:none" /><path
         d="m 530,269 h 1 v 1 q -1,1 -1,2 v 2 l 1,1 1,1 1,1 1,1 h 1 q -1,1 -8,8 -7,6 -17,18 -11,11 -12,11 -1,0 -3,3 l -2,2 q 0,0 -1,0 h -2 v -2 l -1,-1 -1,-1 v -1 h -1 v 1 h -1 v 1 h -1 v 1 h -2 v -1 l 1,-1 v -1 h 1 v -1 h 2 q 0,0 1,-1 l 15,-16 q 15,-17 21,-22 5,-5 6,-6 z"
         fill="#151515"
         stroke="#151515"
         id="path26"
         style="fill:#eaeaea;fill-opacity:1;stroke-width:0;stroke-dasharray:none" /><path
         d="m 723,112 q 2,0 21,0 18,0 20,1 2,1 3,21 1,21 0,22 -1,2 -24,2 -23,0 -23,-1 0,-1 -1,-21 -1,-19 1,-21 1,-3 3,-3 z"
         fill="#1397c7"
         stroke="#1397c7"
         id="path27"
         style="fill:#eaeaea;fill-opacity:1;stroke-width:0;stroke-dasharray:none" /><path
         d="m 600,455 1,-1 h 4 v 1 h 1 v 1 h 1 v 1 h 1 v 1 l 1,1 1,1 v 7 q 0,7 -2,9 0,2 -1,2 h -1 q -1,0 -2,1 v -1 q 0,-2 0,-4 0,-3 -3,-8 l -3,-4 v -6 h 1 z"
         fill="#1c1c1c"
         stroke="#1c1c1c"
         id="path28"
         style="fill:#eaeaea;fill-opacity:1;stroke-width:0;stroke-dasharray:none" /><path
         d="m 358,301 13,-1 3,4 q 4,4 26,6 22,1 22,6 v 32 q 0,26 -3,28 -2,2 -37,3 -34,1 -37,-2 -3,-2 -4,-35 -1,-34 2,-37 2,-3 15,-4 z"
         fill="#0f96c6"
         stroke="#0f96c6"
         id="path29"
         style="fill:#eaeaea;fill-opacity:1;stroke-width:0;stroke-dasharray:none" /><path
         d="m 466,116 3,-2 v 1 q -1,1 -1,1 0,1 -1,1 v 1 q -1,0 -1,0 0,1 -1,2 l -1,1 q 0,1 -2,5 l -2,4 -1,1 -1,1 v 3 h 71 l 5,1 q 6,0 9,3 3,3 3,4 0,1 1,21 v 46 q -1,18 -1,19 0,1 -3,4 -3,3 -31,3 l -27,1 h -17 q -17,-1 -18,-1 -1,0 -4,-3 -2,-3 -3,-17 l -1,-14 v -29 q 0,-29 2,-31 0,-2 5,-5 5,-3 10,-10 5,-8 7,-11 z"
         fill="#0e95c6"
         stroke="#0e95c6"
         id="path32"
         style="fill:#eaeaea;fill-opacity:1;stroke-width:0;stroke-dasharray:none" /><path
         d="m 592,158 1,6 q 1,6 1,12 v 8 q 0,0 -4,0 -4,1 -4,0 v -11 q 0,-9 -1,-12 v -3 l 1,-2 q 2,-2 3,-2 1,0 2,2 z"
         fill="#1a1a19"
         stroke="#1a1a19"
         id="path34"
         style="fill:#eaeaea;fill-opacity:1;stroke-width:0;stroke-dasharray:none" /><path
         d="m 252,50 q 36,0 38,2 3,2 6,11 4,8 4,57 0,48 -2,54 -2,5 -6,10 -4,4 -38,5 -35,1 -38,-3 -4,-2 -7,-10 -3,-8 -4,-54 -1,-47 1,-52 0,-4 4,-12 4,-7 6,-8 1,0 36,0 z m -27,69 V 78 h 27 q 28,0 28,40 0,40 0,41 v 1 h -55 v -1 q -1,0 0,-40 z"
         fill="#1196c7"
         stroke="#1196c7"
         id="path35"
         style="fill:#eaeaea;fill-opacity:1;stroke-width:0;stroke-dasharray:none" /><path
         d="m 564,237 h 1 l 1,1 q 2,1 3,2 2,0 2,2 v 2 q -1,0 -3,2 -2,3 -16,16 l -14,13 v 1 h -1 v 1 h -1 v 1 h -2 l -1,-1 -1,-1 -1,-1 -1,-1 v -2 h -1 v -1 h 1 v -1 h 1 v -1 h 1 v -1 l 14,-13 q 14,-13 16,-15 2,-2 2,-3 z"
         fill="#141414"
         stroke="#141414"
         id="path36"
         style="fill:#eaeaea;fill-opacity:1;stroke-width:0;stroke-dasharray:none" /><path
         d="m 299,524 h -28 l -1,-1 v -11 h 1 v -1 h 27 q 28,-1 30,-3 2,-3 3,-31 1,-28 -1,-32 -2,-3 -34,-4 -32,-1 -34,2 -2,2 -2,22 l -1,20 h -11 v -2 h -1 l 1,-19 q 0,-20 3,-25 3,-5 3,-7 1,-1 5,-3 4,-1 37,-1 34,0 38,4 4,3 7,9 3,6 2,37 -1,30 -3,35 -3,5 -6,7 -3,2 -5,3 -2,1 -30,1 z"
         fill="#40aad3"
         stroke="#40aad3"
         id="path38"
         style="fill:#eaeaea;fill-opacity:1;stroke-width:0;stroke-dasharray:none" /><path
         d="m 780,459 7,-1 h 1 q 1,0 1,13 0,13 -2,13 h -2 l -3,1 q -4,1 -5,3 -1,3 -1,48 0,45 2,47 1,3 49,2 48,-1 50,-4 1,-4 1,-47 0,-44 -1,-45 l -1,-1 v -2 h -1 l -1,-1 -1,-1 h -4 q -3,0 -3,-13 v -13 h 8 q 5,0 10,2 4,2 8,7 4,4 8,11 2,7 3,54 1,48 -1,55 -2,7 -6,12 -3,5 -8,8 -5,3 -60,4 -54,1 -56,-1 -3,0 -8,-5 -6,-4 -9,-11 -3,-7 -4,-56 -1,-50 1,-56 2,-5 6,-11 4,-6 9,-9 5,-2 13,-3 z"
         fill="#39a8d3"
         stroke="#39a8d3"
         id="path39"
         style="fill:#eaeaea;fill-opacity:1;stroke-width:0;stroke-dasharray:none" /><path
         d="m 853,141 q 34,-1 37,3 4,3 4,45 0,42 -3,45 -2,2 -37,3 -34,1 -37,-3 -3,-3 -3,-45 0,-42 2,-45 2,-3 37,-3 z"
         fill="#bae096"
         stroke="#bae096"
         id="path40"
         style="fill:#eaeaea;fill-opacity:1;stroke-width:0;stroke-dasharray:none" /><path
         d="m 371,585 h 1 l 14,6 q 15,5 46,20 30,15 38,17 9,2 19,2 h 10 v 1 h -1 v 2 h 2 v 2 h -1 v 1 h -3 l -2,1 q -1,1 -4,1 -2,0 -12,1 -9,1 -18,-1 -9,-2 -34,-14 -24,-11 -38,-17 l -14,-7 h -2 q 0,0 -1,-1 h -1 v -7 q 0,-7 1,-7 z"
         fill="#0e0f0f"
         stroke="#0e0f0f"
         id="path42"
         style="fill:#eaeaea;fill-opacity:1;stroke-width:0;stroke-dasharray:none" /><path
         d="m 488,314 v -1 h 1 q 1,0 1,1 0,1 0,2 v 4 h 2 q 1,0 1,0 -1,1 -2,3 -2,3 -12,16 l -11,14 v 1 l -1,1 -1,1 -1,-1 v -1 h -2 v -1 h -1 v 1 h -1 v -1 h -1 v -4 h 1 v -1 h 1 l 10,-15 q 10,-15 11,-15 1,0 1,0 v -1 q 0,0 1,-1 1,0 1,0 v -1 q 0,0 1,-1 z"
         fill="#161616"
         stroke="#161616"
         id="path43"
         style="fill:#eaeaea;fill-opacity:1;stroke-width:0;stroke-dasharray:none" /><path
         d="m 486,36 q 19,0 22,1 2,1 3,22 1,21 0,22 -1,1 -23,1 -22,0 -23,0 -1,-1 -1,-22 0,-21 1,-22 1,-2 21,-2 z"
         fill="#bae096"
         stroke="#bae096"
         id="path44"
         style="fill:#eaeaea;fill-opacity:1;stroke-width:0;stroke-dasharray:none" /><path
         d="m 534,366 v -2 h 10 q 9,0 10,2 0,2 14,3 h 15 v 11 l -1,10 h -16 q -17,0 -18,-1 -2,-1 -7,-5 -5,-5 -6,-10 l -1,-6 z"
         fill="#3ca9d2"
         stroke="#3ca9d2"
         id="path49"
         style="fill:#eaeaea;fill-opacity:1;stroke-width:0;stroke-dasharray:none" /><path
         d="m 529,91 h 1 l 9,3 q 9,2 13,5 4,3 4,3 v 1 q 0,1 -1,1 l -1,1 h -1 q -1,-1 -9,-5 l -9,-4 -1,-1 h -1 q 0,-1 -2,-1 -2,0 -3,-2 0,-1 1,-1 z"
         fill="#2e2f2e"
         stroke="#2e2f2e"
         id="path50"
         style="fill:#eaeaea;fill-opacity:1;stroke-width:0;stroke-dasharray:none" /><path
         d="m 681,153 v -1 h 1 v 4 l 1,2 v 1 h 1 l 1,-1 h 1 v 1 q 0,1 -2,7 -2,6 -7,12 -4,6 -9,9 -6,3 -40,5 -34,0 -35,1 l -1,1 v -1 q 0,-1 -4,-1 -3,0 -4,2 l -1,3 v -5 h -36 v -9 h 1 v 1 h 3 l 17,1 h 16 v -1 q 1,-2 2,-2 v 2 q 0,1 4,0 4,0 4,0 v -1 1 q 1,1 34,0 33,0 39,-5 5,-5 9,-11 2,-7 3,-10 1,-3 1,-4 v -1 z"
         fill="#bcdf9b"
         stroke="#bcdf9b"
         id="path51"
         style="fill:#eaeaea;fill-opacity:1;stroke-width:0;stroke-dasharray:none" /><path
         d="m 686,108 v 50 h -1 l -1,1 h -1 v -1 l -1,-2 v -4 h -1 v 1 h -1 v -45 q 0,-44 -1,-48 -1,-3 -4,-10 -3,-7 -8,-11 -5,-3 -63,-3 -58,0 -62,3 -5,3 -9,10 -3,7 -4,23 -1,17 0,18 l 1,1 h -1 q -1,0 -1,1 1,2 3,2 2,0 2,1 h -5 v 39 h 1 v 1 h -9 V 94 h -20 v -2 h 4 l 8,-2 q 8,-2 10,-19 0,-17 5,-26 5,-9 12,-13 7,-4 65,-4 57,0 63,3 6,3 11,10 4,7 6,12 2,5 2,55 z"
         fill="#bcde99"
         stroke="#bcde99"
         id="path52"
         style="fill:#eaeaea;fill-opacity:1;stroke-width:0;stroke-dasharray:none" /><path
         d="m 624,384 h -1 v 1 h -1 v 1 h -1 l -1,1 -1,1 h -2 v 1 h -3 v -14 q 0,-14 -2,-18 l -2,-4 v -38 h -1 v -1 h -55 v 1 l -1,15 v 14 h -19 v -5 q 0,-5 -1,-5 l 1,-12 q 0,-12 4,-18 3,-6 6,-8 3,-2 38,-1 36,1 40,5 4,4 6,8 2,4 1,36 -1,31 -3,35 z"
         fill="#3ba8d2"
         stroke="#3ba8d2"
         id="path54"
         style="fill:#eaeaea;fill-opacity:1;stroke-width:0;stroke-dasharray:none" /><path
         d="m 935,298 v 10 q 0,0 -9,2 -8,0 -11,2 -3,2 -6,6 -3,5 -5,36 v 31 h -1 v 1 h -1 l -34,-1 q -35,-1 -38,-4 -4,-3 -4,-49 0,-45 3,-48 2,-2 3,-4 2,0 49,0 47,0 49,1 1,1 3,4 1,3 2,13 z"
         fill="#0f96c6"
         stroke="#0f96c6"
         id="path55"
         style="fill:#eaeaea;fill-opacity:1;stroke-width:0;stroke-dasharray:none" /><path
         d="m 868,458 h -2 v 13 q 0,13 3,13 h 3 l -3,1 h -3 v 3 l -1,9 q -1,9 -2,11 -2,2 -35,3 -32,1 -35,-2 -3,-2 -3,-13 -1,-11 -3,-12 h -2 2 q 2,0 2,-13 0,-13 -1,-13 h -1 1 q 1,-1 2,-8 0,-8 3,-10 2,-2 35,-1 33,1 35,2 1,2 2,9 1,7 2,7 z"
         fill="#bae096"
         stroke="#bae096"
         id="path57"
         style="fill:#eaeaea;fill-opacity:1;stroke-width:0;stroke-dasharray:none" /><path
         d="m 533,339 v -5 q 1,0 1,5 v 5 h 20 l 20,2 q 20,0 26,4 7,2 8,3 h 2 l 2,4 q 2,4 2,18 v 14 h 2 q 0,1 -1,1 -1,0 -2,18 -1,18 -3,22 -4,3 -11,6 -7,4 -53,4 -47,0 -56,-2 -10,-4 -14,-7 -4,-4 -4,-37 0,-34 0,-36 2,-1 4,-4 2,-2 9,-5 7,-3 27,-4 l 21,-1 z m 0,27 1,2 v -4 h 10 q 9,0 10,2 0,2 14,3 h 15 v 11 l -1,10 v 30 h -40 q -39,0 -39,0 -1,0 -1,-27 0,-27 15,-28 15,-1 16,1 z"
         fill="#bbe098"
         stroke="#bbe098"
         id="path58"
         style="fill:#eaeaea;fill-opacity:1;stroke-width:0;stroke-dasharray:none" /><path
         d="m 686,366 q 42,0 46,2 4,3 4,38 0,34 -3,37 -3,3 -45,3 -42,0 -45,-2 -3,-2 -3,-37 0,-35 2,-38 3,-3 44,-3 z"
         fill="#0f96c7"
         stroke="#0f96c7"
         id="path59"
         style="fill:#eaeaea;fill-opacity:1;stroke-width:0;stroke-dasharray:none" /><path
         d="m 592,193 v 1 l -2,8 q -2,8 -2,8 -1,0 -2,0 0,0 -1,-1 -1,-1 -1,-3 0,-2 -1,-2 l -1,-1 v -1 q 0,-1 1,-3 v -2 l 1,-3 q 1,-2 4,-2 4,0 4,1 z"
         fill="#1c1d1b"
         stroke="#1c1d1b"
         id="path60"
         style="fill:#eaeaea;fill-opacity:1;stroke-width:0;stroke-dasharray:none" /></g></g></svg>
