<?xml version="1.0" encoding="UTF-8" standalone="no"?>
<svg
   version="1.1"
   width="45"
   height="45"
   id="svg1"
   sodipodi:docname="wp.svg"
   inkscape:version="1.4 (86a8ad7, 2024-10-11)"
   xmlns:inkscape="http://www.inkscape.org/namespaces/inkscape"
   xmlns:sodipodi="http://sodipodi.sourceforge.net/DTD/sodipodi-0.dtd"
   xmlns="http://www.w3.org/2000/svg"
   xmlns:svg="http://www.w3.org/2000/svg">
  <defs
     id="defs1" />
  <sodipodi:namedview
     id="namedview1"
     pagecolor="#ffffff"
     bordercolor="#000000"
     borderopacity="0.25"
     inkscape:showpageshadow="2"
     inkscape:pageopacity="0.0"
     inkscape:pagecheckerboard="0"
     inkscape:deskcolor="#d1d1d1"
     inkscape:zoom="27"
     inkscape:cx="22.518519"
     inkscape:cy="22.5"
     inkscape:window-width="5120"
     inkscape:window-height="1417"
     inkscape:window-x="-8"
     inkscape:window-y="-8"
     inkscape:window-maximized="1"
     inkscape:current-layer="svg1" />
  <path
     style="fill:#afb0b0;fill-opacity:0.327711;stroke:#666666;stroke-width:0;stroke-linecap:round"
     id="path5"
     sodipodi:type="arc"
     sodipodi:cx="22.5"
     sodipodi:cy="22.5"
     sodipodi:rx="22.5"
     sodipodi:ry="22.5"
     sodipodi:start="6.2790937"
     sodipodi:end="6.2689377"
     sodipodi:open="true"
     sodipodi:arc-type="arc"
     d="M 44.999812,22.407939 A 22.5,22.5 0 0 1 22.649188,44.999505 22.5,22.5 0 0 1 9.4591245e-4,22.706313 22.5,22.5 0 0 1 22.236562,0.00154226 22.5,22.5 0 0 1 44.997716,22.17944" />
  <path
     d="m 39.587963,0.31087334 c -0.980311,0 -1.774318,0.69331326 -1.774318,1.54930346 0,0.34472 0.128638,0.6623272 0.345992,0.9218355 -0.86498,0.4338051 -1.45494,1.2433161 -1.45494,2.1767714 0,0.7862714 0.416964,1.4873311 1.069026,1.9482489 -1.330739,0.4105656 -3.286924,2.1496585 -3.286924,5.2172794 h 10.202328 c 0,-3.0676209 -1.956186,-4.8067138 -3.286924,-5.2172794 0.652062,-0.4609178 1.069026,-1.1619775 1.069026,-1.9482489 0,-0.9334553 -0.58996,-1.7429663 -1.45494,-2.1767714 0.217354,-0.2595083 0.345992,-0.5771155 0.345992,-0.9218355 0,-0.8559902 -0.794007,-1.54930346 -1.774318,-1.54930346 z"
     style="opacity:1;fill:#ffffff;fill-opacity:1;fill-rule:nonzero;stroke:#666666;stroke-width:0.62175;stroke-linecap:round;stroke-linejoin:miter;stroke-miterlimit:4;stroke-dasharray:none;stroke-opacity:1"
     id="path1" />
</svg>
