<?xml version="1.0" encoding="UTF-8" standalone="no"?>
<svg
   version="1.1"
   width="45"
   height="45"
   id="svg5"
   sodipodi:docname="bk.svg"
   inkscape:version="1.4 (86a8ad7, 2024-10-11)"
   xmlns:inkscape="http://www.inkscape.org/namespaces/inkscape"
   xmlns:sodipodi="http://sodipodi.sourceforge.net/DTD/sodipodi-0.dtd"
   xmlns="http://www.w3.org/2000/svg"
   xmlns:svg="http://www.w3.org/2000/svg">
  <defs
     id="defs5" />
  <sodipodi:namedview
     id="namedview5"
     pagecolor="#ffffff"
     bordercolor="#000000"
     borderopacity="0.25"
     inkscape:showpageshadow="2"
     inkscape:pageopacity="0.0"
     inkscape:pagecheckerboard="0"
     inkscape:deskcolor="#d1d1d1"
     inkscape:zoom="13.5"
     inkscape:cx="4.3333333"
     inkscape:cy="34.555556"
     inkscape:window-width="2558"
     inkscape:window-height="1401"
     inkscape:window-x="-7"
     inkscape:window-y="0"
     inkscape:window-maximized="0"
     inkscape:current-layer="svg5" />
  <g
     style="fill:none;fill-opacity:1;fill-rule:evenodd;stroke:#666666;stroke-width:1.5;stroke-linecap:round;stroke-linejoin:round;stroke-miterlimit:4;stroke-dasharray:none;stroke-opacity:1"
     id="g5"
     transform="matrix(0.36287,0,0,0.40006764,30.323372,-1.9221184)">
    <path
       d="M 22.5,11.63 V 6"
       style="fill:none;stroke:#666666;stroke-linejoin:miter"
       id="path6570" />
    <path
       d="m 22.5,25 c 0,0 4.5,-7.5 3,-10.5 0,0 -1,-2.5 -3,-2.5 -2,0 -3,2.5 -3,2.5 -1.5,3 3,10.5 3,10.5"
       style="fill:#666666;fill-opacity:1;stroke-linecap:butt;stroke-linejoin:miter"
       id="path1" />
    <path
       d="m 12.5,37 c 5.5,3.5 14.5,3.5 20,0 v -7 c 0,0 9,-4.5 6,-10.5 -4,-6.5 -13.5,-3.5 -16,4 V 27 23.5 C 20,16 10.5,13 6.5,19.5 c -3,6 6,10.5 6,10.5 v 7"
       style="fill:#666666;stroke:#666666"
       id="path2" />
    <path
       d="m 20,8 h 5"
       style="fill:none;stroke:#666666;stroke-linejoin:miter"
       id="path3" />
    <path
       d="m 32,29.5 c 0,0 8.5,-4 6.03,-9.65 C 34.15,14 25,18 22.5,24.5 v 2.1 -2.1 C 20,18 10.85,14 6.97,19.85 4.5,25.5 13,29.5 13,29.5"
       style="fill:none;stroke:#ffffff"
       id="path4" />
    <path
       d="m 12.5,30 c 5.5,-3 14.5,-3 20,0 m -20,3.5 c 5.5,-3 14.5,-3 20,0 m -20,3.5 c 5.5,-3 14.5,-3 20,0"
       style="fill:none;stroke:#ffffff"
       id="path5" />
  </g>
  <path
     style="fill:#666666;fill-opacity:0.503401;fill-rule:evenodd;stroke:#666666;stroke-width:0;stroke-linecap:round;stroke-linejoin:round;stroke-miterlimit:4;stroke-dasharray:none;stroke-opacity:1"
     id="path5-0"
     sodipodi:type="arc"
     sodipodi:cx="22.5"
     sodipodi:cy="22.5"
     sodipodi:rx="22.5"
     sodipodi:ry="22.5"
     sodipodi:start="6.2790937"
     sodipodi:end="6.2689377"
     sodipodi:open="true"
     sodipodi:arc-type="arc"
     d="M 44.999812,22.407939 A 22.5,22.5 0 0 1 22.649188,44.999505 22.5,22.5 0 0 1 9.4591245e-4,22.706313 22.5,22.5 0 0 1 22.236562,0.00154226 22.5,22.5 0 0 1 44.997716,22.17944" />
</svg>
