<?xml version="1.0" encoding="UTF-8" standalone="no"?>
<svg
   version="1.1"
   width="45"
   height="45"
   id="svg1"
   sodipodi:docname="bp.svg"
   inkscape:version="1.4 (86a8ad7, 2024-10-11)"
   xmlns:inkscape="http://www.inkscape.org/namespaces/inkscape"
   xmlns:sodipodi="http://sodipodi.sourceforge.net/DTD/sodipodi-0.dtd"
   xmlns="http://www.w3.org/2000/svg"
   xmlns:svg="http://www.w3.org/2000/svg">
  <defs
     id="defs1" />
  <sodipodi:namedview
     id="namedview1"
     pagecolor="#ffffff"
     bordercolor="#000000"
     borderopacity="0.25"
     inkscape:showpageshadow="2"
     inkscape:pageopacity="0.0"
     inkscape:pagecheckerboard="0"
     inkscape:deskcolor="#d1d1d1"
     inkscape:zoom="27"
     inkscape:cx="22.518519"
     inkscape:cy="22.5"
     inkscape:window-width="5120"
     inkscape:window-height="1417"
     inkscape:window-x="-8"
     inkscape:window-y="-8"
     inkscape:window-maximized="1"
     inkscape:current-layer="svg1" />
  <path
     d="m 38.796987,0.95898137 c -1.007767,0 -1.824012,0.72207813 -1.824012,1.61358253 0,0.3590222 0.132241,0.6898065 0.355682,0.9600817 -0.889205,0.4518032 -1.495689,1.2949001 -1.495689,2.2670836 0,0.818893 0.428643,1.5490391 1.098967,2.0290798 -1.368009,0.4275996 -3.378981,2.238846 -3.378981,5.43374 h 10.488065 c 0,-3.194894 -2.010972,-5.0061404 -3.378981,-5.43374 0.670324,-0.4800407 1.098967,-1.2101868 1.098967,-2.0290798 0,-0.9721835 -0.606485,-1.8152804 -1.495689,-2.2670836 0.223441,-0.2702752 0.355681,-0.6010595 0.355681,-0.9600817 0,-0.8915044 -0.816244,-1.61358253 -1.82401,-1.61358253 z"
     style="opacity:1;fill:#666666;fill-opacity:1;fill-rule:nonzero;stroke:#666666;stroke-width:0.643341;stroke-linecap:round;stroke-linejoin:miter;stroke-miterlimit:4;stroke-dasharray:none;stroke-opacity:1"
     id="path1" />
  <path
     style="fill:#666666;fill-opacity:0.503401;stroke:#666666;stroke-width:0;stroke-linecap:round"
     id="path5"
     sodipodi:type="arc"
     sodipodi:cx="22.5"
     sodipodi:cy="22.5"
     sodipodi:rx="22.5"
     sodipodi:ry="22.5"
     sodipodi:start="6.2790937"
     sodipodi:end="6.2689377"
     sodipodi:open="true"
     sodipodi:arc-type="arc"
     d="M 44.999812,22.407939 A 22.5,22.5 0 0 1 22.649188,44.999505 22.5,22.5 0 0 1 9.4591245e-4,22.706313 22.5,22.5 0 0 1 22.236562,0.00154226 22.5,22.5 0 0 1 44.997716,22.17944" />
</svg>
