<?xml version="1.0" encoding="UTF-8" standalone="no"?>
<svg
   version="1.1"
   width="45"
   height="45"
   id="svg13"
   sodipodi:docname="bq.svg"
   inkscape:version="1.4 (86a8ad7, 2024-10-11)"
   xmlns:inkscape="http://www.inkscape.org/namespaces/inkscape"
   xmlns:sodipodi="http://sodipodi.sourceforge.net/DTD/sodipodi-0.dtd"
   xmlns="http://www.w3.org/2000/svg"
   xmlns:svg="http://www.w3.org/2000/svg">
  <defs
     id="defs13" />
  <sodipodi:namedview
     id="namedview13"
     pagecolor="#ffffff"
     bordercolor="#000000"
     borderopacity="0.25"
     inkscape:showpageshadow="2"
     inkscape:pageopacity="0.0"
     inkscape:pagecheckerboard="0"
     inkscape:deskcolor="#d1d1d1"
     inkscape:zoom="27"
     inkscape:cx="22.518519"
     inkscape:cy="22.5"
     inkscape:window-width="5120"
     inkscape:window-height="1417"
     inkscape:window-x="-8"
     inkscape:window-y="-8"
     inkscape:window-maximized="1"
     inkscape:current-layer="svg13" />
  <g
     style="fill:#666666;stroke:#666666;stroke-width:1.5;stroke-linecap:round;stroke-linejoin:round"
     id="g13"
     transform="matrix(0.33059198,0,0,0.32867225,31.161882,-1.6697416)">
    <path
       d="m 9,26 c 8.5,-1.5 21,-1.5 27,0 L 38.5,13.5 31,25 30.7,10.9 25.5,24.5 22.5,10 19.5,24.5 14.3,10.9 14,25 6.5,13.5 Z"
       style="fill:#666666;stroke-linecap:butt"
       id="path1" />
    <path
       d="m 9,26 c 0,2 1.5,2 2.5,4 1,1.5 1,1 0.5,3.5 -1.5,1 -1,2.5 -1,2.5 -1.5,1.5 0,2.5 0,2.5 6.5,1 16.5,1 23,0 0,0 1.5,-1 0,-2.5 0,0 0.5,-1.5 -1,-2.5 -0.5,-2.5 -0.5,-2 0.5,-3.5 1,-2 2.5,-2 2.5,-4 -8.5,-1.5 -18.5,-1.5 -27,0 z"
       id="path2" />
    <path
       d="M 11.5,30 C 15,29 30,29 33.5,30"
       id="path3" />
    <path
       d="m 12,33.5 c 6,-1 15,-1 21,0"
       id="path4" />
    <circle
       cx="6"
       cy="12"
       r="2"
       id="circle4" />
    <circle
       cx="14"
       cy="9"
       r="2"
       id="circle5" />
    <circle
       cx="22.5"
       cy="8"
       r="2"
       id="circle6" />
    <circle
       cx="31"
       cy="9"
       r="2"
       id="circle7" />
    <circle
       cx="39"
       cy="12"
       r="2"
       id="circle8" />
    <path
       d="m 11,38.5 a 35,35 1 0 0 23,0"
       style="fill:none;stroke:#666666;stroke-linecap:butt"
       id="path8" />
    <g
       style="fill:none;stroke:#ffffff"
       id="g12">
      <path
         d="m 11,29 a 35,35 1 0 1 23,0"
         id="path9" />
      <path
         d="m 12.5,31.5 h 20"
         id="path10" />
      <path
         d="m 11.5,34.5 a 35,35 1 0 0 22,0"
         id="path11" />
      <path
         d="m 10.5,37.5 a 35,35 1 0 0 24,0"
         id="path12" />
    </g>
  </g>
  <path
     style="fill:#666666;fill-opacity:0.503401;stroke:#666666;stroke-width:0;stroke-linecap:round"
     id="path5"
     sodipodi:type="arc"
     sodipodi:cx="22.5"
     sodipodi:cy="22.5"
     sodipodi:rx="22.5"
     sodipodi:ry="22.5"
     sodipodi:start="6.2790937"
     sodipodi:end="6.2689377"
     sodipodi:open="true"
     sodipodi:arc-type="arc"
     d="M 44.999812,22.407939 A 22.5,22.5 0 0 1 22.649188,44.999505 22.5,22.5 0 0 1 9.4591245e-4,22.706313 22.5,22.5 0 0 1 22.236562,0.00154226 22.5,22.5 0 0 1 44.997716,22.17944" />
</svg>
